HIERARCHY
ROOT root
{
	OFFSET 0.00 0.00 0.00
	CHANNELS 6 Xposition Yposition Zposition Xrotation Yrotation Zrotation
	JOINT neck
	{
		OFFSET 0 0 0
		CHANNELS 3 Xrotation Yrotation Zrotation
		End head
		{
			OFFSET 0 20.0025 0
		}
	}
	End torso
	{
		OFFSET 0 -40.005 0
	}
	JOINT lshoulder
	{
		OFFSET 17.5357 -3.68096 1.7407
		CHANNELS 3 Xrotation Yrotation Zrotation
		JOINT lelbow
		{
			OFFSET 20.0025 0 0
			CHANNELS 3 Xrotation Yrotation Zrotation
			JOINT lwrist
			{
				OFFSET 20.0025 0 0
				CHANNELS 3 Xrotation Yrotation Zrotation
				End lhand
				{
					OFFSET 10.0013 0 0
				}
			}
		}
	}
	JOINT rshoulder
	{
		OFFSET -17.5357 -3.68096 1.7407
		CHANNELS 3 Xrotation Yrotation Zrotation
		JOINT relbow
		{
			OFFSET -20.0025 0 0
			CHANNELS 3 Xrotation Yrotation Zrotation
			JOINT rwrist
			{
				OFFSET -20.0025 0 0
				CHANNELS 3 Xrotation Yrotation Zrotation
				End rhand
				{
					OFFSET -10.0013 0 0
				}
			}
		}
	}
}
MOTION
Frames: 62
Frame Time: 0.0333333
-2.87802	111.406	4.75496	-0	0	-0	-10.4148	0	-1.31453e-07	-164.488	19.064	62.5626	-180	46.9958	-180	-0	0	-0	5.83982	21.0184	58.694	-180	24.6994	-180	-0	0	-0
-2.87802	111.471	4.90695	-0	0	-0	-10.4438	7.95139e-16	-1.31453e-07	-163.987	19.3902	62.337	-180	46.4032	-180	-0	0	-0	1.72691	23.4872	59.4051	-180	25.7591	-180	-0	0	-0
-2.87802	111.499	4.96501	-0	0	-0	-10.3127	-7.95139e-16	-1.31453e-07	-164.08	19.383	62.3108	-180	46.1644	-180	-0	0	-0	-2.68267	25.6809	60.869	-180	28.1315	-180	-0	0	-0
-2.87802	111.512	4.93359	-0	0	-0	-9.99764	-7.95139e-16	-1.31453e-07	-164.236	19.626	62.1517	-180	46.2577	-180	-0	0	-0	-5.72731	27.117	62.5413	-180	30.7594	-180	-0	0	-0
-2.87802	111.512	4.83329	-0	0	-0	-9.64463	7.95139e-16	-1.31453e-07	-164.519	19.5226	62.2701	-180	46.8299	-180	-0	0	-0	-8.10633	28.0304	63.7907	-180	33.0346	-180	-0	0	-0
-2.87802	111.512	4.67482	-0	0	-0	-9.32518	-7.95139e-16	-1.31453e-07	-164.859	19.0363	62.5308	-180	47.8026	-180	-0	0	-0	-9.26606	28.2981	64.5424	-180	34.1769	-180	-0	0	-0
-2.87802	111.566	4.4686	-0	0	-0	-9.10583	7.95139e-16	-1.31453e-07	-165.281	18.4739	62.9825	-180	49.6049	-180	-0	0	-0	-9.71113	28.3399	65.1881	-180	34.4095	-180	-0	0	-0
-2.87802	111.726	4.23971	-0	0	-0	-8.99394	0	-1.31453e-07	-165.753	18.2434	63.5186	-180	52.1971	-180	-0	0	-0	-9.28227	28.3167	66.1525	-180	34.6194	-180	-0	0	-0
-2.87802	112.073	4.04234	-0	0	-0	-9.01187	-7.95139e-16	-1.31453e-07	-166.262	18.5189	64.186	-180	55.4517	-180	-0	0	-0	-7.85324	28.4124	67.7266	-180	35.5677	-180	-0	0	-0
-2.87802	112.569	3.93135	-0	0	-0	-9.34074	7.95139e-16	-1.31453e-07	-166.644	19.5284	64.8505	-180	59.03	-180	-0	0	-0	-5.32414	28.5079	69.5873	-180	37.1033	-180	-0	0	-0
-2.87802	112.996	3.92606	-0	0	-0	-9.89211	7.95139e-16	-1.31453e-07	-166.907	20.9767	65.3496	-180	62.0135	-180	-0	0	-0	-2.69235	28.8005	71.385	-180	38.911	-180	-0	0	-0
-2.87802	113.094	3.97689	-0	0	-0	-10.5809	0	-1.31453e-07	-167.067	22.5008	65.3479	-180	63.1393	-180	-0	0	-0	-0.881688	29.2695	72.9688	-180	40.3458	-180	-0	0	-0
-2.87802	112.704	4.02573	-0	0	-0	-10.9062	0	-1.31453e-07	-167.692	23.0133	65.1998	-180	61.0959	-180	-0	0	-0	-0.481941	29.8006	74.6765	-180	40.8649	-180	-0	0	-0
-2.87802	112.018	4.01639	-0	0	-0	-10.9602	7.95139e-16	-1.31453e-07	-169.268	22.3842	65.2149	-180	56.496	-180	-0	0	-0	-1.64154	30.2232	76.5874	-180	40.6235	-180	-0	0	-0
-2.87802	111.431	3.98073	-0	0	-0	-10.769	0	-1.31453e-07	-171.959	20.1577	65.8898	-180	50.7258	-180	-0	0	-0	-4.11052	29.9664	78.7268	-180	39.8613	-180	-0	0	-0
-2.87802	111.19	3.99813	-0	0	-0	-10.593	0	-0.155767	-175.11	16.766	67.1564	-180	45.287	-180	-0	0	-0	-6.56681	29.2236	80.6155	-180	39.1976	-180	-0	0	-0
-2.87802	111.234	4.12672	-0	0	-0	-10.4574	-3.33505e-09	-0.45865	-177.843	12.8985	68.7054	-180	40.3551	-180	-0	0	-0	-8.52844	28.3469	81.8489	-180	38.5247	-180	-0	0	-0
-2.87802	111.366	4.36986	-0	0	-0	-10.3802	0	-0.990976	-179.434	9.2534	70.0607	-180	35.6313	-180	-0	0	-0	-9.47904	28.1377	82.4422	-180	37.7447	-180	-0	0	-0
-2.87802	111.458	4.6979	-0	0	-0	-10.4622	-1.33402e-08	-1.57079	-179.711	6.18061	70.9979	-180	31.1012	-180	-0	0	-0	-9.23928	28.7059	82.6052	-180	36.2304	-180	-0	0	-0
-2.87802	111.499	5.01938	-0	0	-0	-10.7907	0	-1.81089	-179.237	3.59768	71.538	-180	27.5454	-180	-0	0	-0	-8.20171	29.8462	83.1587	-180	33.4451	-180	-0	0	-0
-2.82366	111.512	5.17666	-0	0	-0	-11.0019	0	-1.4188	-178.902	3.02205	71.9166	-180	26.2146	-180	-0	0	-0	-5.68329	30.7688	82.9477	-180	29.7644	-180	-0	0	-0
-2.66354	111.512	5.08325	-0	0	-0	-10.673	3.33505e-09	-0.375852	-179.407	4.87907	72.5444	-180	27.3753	-180	-0	0	-0	-2.80394	31.3497	82.2064	-180	26.3121	-180	-0	0	-0
-2.31716	111.512	4.68611	-0	0	-0	-9.38894	0	1.14693	178.866	8.88799	73.8083	-180	30.5629	-180	-0	0	-0	-0.764772	28.8866	79.823	-180	23.9657	-180	-0	0	-0
-1.82122	111.512	4.09076	-0	0	-0	-7.34356	0	2.79756	176.394	14.5504	75.5882	-180	34.6058	-180	-0	0	-0	-1.6371	24.544	76.9942	-180	23.9711	-180	-0	0	-0
-1.3392	111.512	3.51211	-0	0	-0	-5.41455	0	4.3303	173.625	19.0308	77.2797	-180	38.798	-180	-0	0	-0	-3.17659	20.1209	73.6328	-180	25.014	-180	-0	0	-0
-1.13526	111.512	3.17006	-0	0	-0	-4.58513	-1.33402e-08	4.92646	172.175	22.2965	77.728	-180	42.4268	-180	-0	0	-0	-5.75804	18.0035	70.4843	-180	27.6138	-180	-0	0	-0
-1.3392	111.512	3.10772	-0	0	-0	-5.01638	1.33402e-08	4.33775	172.561	23.9064	76.5474	-180	45.5891	-180	-0	0	-0	-7.67115	19.0953	68.842	-180	30.9689	-180	-0	0	-0
-1.82122	111.512	3.2116	-0	0	-0	-6.24285	-1.33402e-08	2.97739	174.289	24.5334	74.3879	-180	48.7145	-180	-0	0	-0	-10.0731	21.7905	68.1532	-180	34.8333	-180	-0	0	-0
-2.31716	111.512	3.36952	-0	0	-0	-7.60147	-1.33402e-08	1.55699	176.477	25.4256	72.3911	-180	51.7683	-180	-0	0	-0	-11.8232	24.4209	68.1502	-180	38.0956	-180	-0	0	-0
-2.64998	111.458	3.5067	-0	0	-0	-8.65112	3.33505e-09	0.653245	178.506	26.6431	71.2612	-180	54.2803	-180	-0	0	-0	-12.7962	26.127	67.8774	-180	39.9697	-180	-0	0	-0
-2.8101	111.298	3.58886	-0	0	-0	-9.34073	0	0.194544	-179.705	28.0532	70.752	-180	56.1442	-180	-0	0	-0	-12.663	27.011	67.3326	-180	40.431	-180	-0	0	-0
-2.86446	110.951	3.5628	-0	0	-0	-9.73073	2.08441e-10	0.0387648	-178.089	29.8201	70.2072	-180	57.6901	-180	-0	0	-0	-11.9395	27.4684	66.9741	-180	40.2903	-180	-0	0	-0
-2.82366	110.401	3.52449	-0	0	-0	-10.0549	4.07111e-13	7.15529e-05	-176.312	32.049	69.2761	-180	59.0978	-180	-0	0	-0	-10.2295	27.5991	67.2482	-180	40.1482	-180	-0	0	-0
-2.7179	109.759	3.62222	-0	0	-0	-10.4907	0	-2.37261e-07	-174.375	34.2745	68.5059	-180	60.3151	-180	-0	0	-0	-7.75679	27.6146	68.0766	-180	40.4272	-180	-0	0	-0
-2.53164	109.209	3.95865	-0	0	-0	-10.8945	1.59028e-15	-2.37261e-07	-172.202	36.4227	67.9949	-180	61.1709	-180	-0	0	-0	-4.557	27.5863	69.5441	-180	41.2707	-180	-0	0	-0
-2.32771	108.863	4.42512	-0	0	-0	-10.8829	0	-2.37261e-07	-170.401	38.5298	67.9753	-180	61.7762	-180	-0	0	-0	-1.91804	27.8879	71.739	-180	43.1977	-180	-0	0	-0
-2.23588	108.703	4.79425	-0	0	-0	-10.1592	1.59028e-15	-2.37261e-07	-169.569	40.7273	68.2495	-180	62.5202	-180	-0	0	-0	-0.841431	28.2418	74.6581	-180	45.9097	-180	-0	0	-0
-2.32771	108.649	4.94745	-0	0	-0	-8.94286	-1.59028e-15	-2.37261e-07	-169.728	42.6398	68.4822	-180	63.4564	-180	-0	0	-0	-1.28185	29.1653	78.0697	-180	48.672	-180	-0	0	-0
-2.53164	108.635	4.96931	-0	0	-0	-7.80633	1.59028e-15	-2.37261e-07	-170.13	43.9578	68.1194	-180	64.329	-180	-0	0	-0	-1.5047	30.3302	81.0513	-180	50.63	-180	-0	0	-0
-2.7179	108.635	5.03861	-0	0	-0	-7.21918	0	-2.37261e-07	-170.176	44.377	67.3643	-180	64.8009	-180	-0	0	-0	-0.328325	31.1739	82.9226	-180	51.1529	-180	-0	0	-0
-2.82366	108.635	5.23329	-0	0	-0	-7.28345	1.59028e-15	-2.37261e-07	-169.445	43.9032	66.4453	-180	64.4618	-180	-0	0	-0	1.69623	31.6056	83.9459	-180	51.0331	-180	-0	0	-0
-2.86446	108.635	5.4836	-0	0	-0	-7.61679	0	-2.37261e-07	-168.16	42.6174	65.8453	-180	63.4022	-180	-0	0	-0	3.79658	31.8834	84.2028	-180	51.0636	-180	-0	0	-0
-2.82366	108.635	5.64195	-0	0	-0	-7.89533	-8.33763e-10	0.155196	-166.987	41.0187	65.7784	-180	62.2232	-180	-0	0	-0	4.79219	32.0378	83.9551	-180	51.3413	-180	-0	0	-0
-2.7179	108.689	5.64295	-0	0	-0	-7.9763	0	0.458448	-166.599	39.5484	66.2272	-180	61.3857	-180	-0	0	-0	4.37732	32.1238	83.3061	-180	51.6394	-180	-0	0	-0
-2.53164	108.849	5.46904	-0	0	-0	-7.87797	-6.67011e-09	0.991764	-167.577	38.2952	67.2994	-180	61.0603	-180	-0	0	-0	3.03691	32.0615	81.974	-180	51.8235	-180	-0	0	-0
-2.32771	109.196	5.15839	-0	0	-0	-7.67729	-6.67011e-09	1.57645	-169.77	36.8376	68.7074	-180	60.711	-180	-0	0	-0	0.958031	31.6388	80.1121	-180	51.7752	-180	-0	0	-0
-2.23588	109.746	4.77909	-0	0	-0	-7.63722	0	1.83935	-172.527	34.353	69.8152	-180	59.1701	-180	-0	0	-0	-0.179693	30.9442	77.5943	-180	51.217	-180	-0	0	-0
-2.32771	110.388	4.34851	-0	0	-0	-7.67778	0	1.54714	-175.364	30.3846	70.0696	-180	56.5082	-180	-0	0	-0	-0.98274	29.5423	75.4876	-180	49.8789	-180	-0	0	-0
-2.53164	110.938	3.87985	-0	0	-0	-7.61048	0	0.992683	-178.172	25.1915	69.281	-180	53.0273	-180	-0	0	-0	-1.44097	27.6262	73.3743	-180	47.1707	-180	-0	0	-0
-2.7179	111.23	3.423	-0	0	-0	-7.14911	0	0.458654	179.048	19.8459	67.4291	-180	49.4584	-180	-0	0	-0	-3.17266	25.8159	71.7701	-180	44.0489	-180	-0	0	-0
-2.82366	111.23	3.09788	-0	0	-0	-6.32216	-8.33763e-10	0.155243	176.528	15.1303	64.7843	-180	45.4475	-180	-0	0	-0	-6.41028	24.9527	70.3184	-180	40.8285	-180	-0	0	-0
-2.8101	110.938	2.89758	-0	0	-0	-5.04106	0	0.194422	173.67	11.5424	61.6064	-180	40.9874	-180	-0	0	-0	-10.9173	24.5119	68.649	-180	37.9864	-180	-0	0	-0
-2.66354	110.401	2.73895	-0	0	-0	-3.42488	-1.66753e-09	0.614376	169.486	9.37148	58.0984	-180	36.5635	-180	-0	0	-0	-16.042	24.0339	66.4885	-180	35.8046	-180	-0	0	-0
-2.31716	109.759	2.48608	-0	0	-0	-1.78464	-3.33505e-09	1.29548	163.696	9.13074	54.8861	-180	33.2553	-180	-0	0	-0	-21.1158	22.5649	62.8829	-180	34.6558	-180	-0	0	-0
-1.76685	109.209	2.06887	-0	0	-0	-0.301956	-4.16882e-10	2.30061	157.04	10.4643	53.0001	-180	31.2946	-180	-0	0	-0	-25.507	20.3265	57.878	-180	34.3928	-180	-0	0	-0
-1.12472	108.863	1.5483	-0	0	-0	0.804345	0	2.93441	151.288	12.9084	52.1003	-180	30.2178	-180	-0	0	-0	-28.5529	18.1696	52.4962	-180	35.1143	-180	-0	0	-0
-0.574409	108.757	1.09897	-0	0	-0	1.01267	-1.66753e-09	3.0382	147.122	14.9872	51.8001	-180	29.426	-180	-0	0	-0	-29.7119	16.5844	47.9824	-180	35.8083	-180	-0	0	-0
-0.228035	108.809	0.86331	-0	0	-0	0.0353161	0	2.38114	145.542	15.8464	51.1243	-180	28.1969	-180	-0	0	-0	-29.4528	15.4762	45.0054	-180	36.0225	-180	-0	0	-0
-0.0679173	109.036	0.878623	-0	0	-0	-1.62896	0	1.45068	146.887	15.8898	50.5936	-180	26.6007	-180	-0	0	-0	-28.3674	14.6896	44.1811	-180	35.6186	-180	-0	0	-0
-0.0135553	109.4	1.05666	-0	0	-0	-3.86529	0	0.614375	150.563	16.5455	50.9568	-180	25.4262	-180	-0	0	-0	-26.9981	14.447	45.3904	-180	34.8531	-180	-0	0	-0
0	109.838	1.28201	-0	0	-0	-5.2428	8.33763e-10	0.194551	154.907	18.8786	52.3154	-180	25.5694	-180	-0	0	-0	-25.5639	14.6578	47.8269	-180	34.0384	-180	-0	0	-0
0	110.296	1.48736	-0	0	-0	-5.49051	-8.33763e-10	0.194546	158.419	21.9819	54.1707	-180	27.1225	-180	-0	0	-0	-23.9866	14.8843	50.3998	-180	33.2662	-180	-0	0	-0
